<?xml version="1.0" standalone="no"?>
<!DOCTYPE svg PUBLIC "-//W3C//DTD SVG 20010904//EN"
 "http://www.w3.org/TR/2001/REC-SVG-20010904/DTD/svg10.dtd">
<svg version="1.0" xmlns="http://www.w3.org/2000/svg"
 width="126.000000pt" height="126.000000pt" viewBox="0 0 126.000000 126.000000"
 preserveAspectRatio="xMidYMid meet">
<metadata>
Created by potrace 1.14, written by Peter Selinger 2001-2017
</metadata>
<g transform="translate(0.000000,126.000000) scale(0.100000,-0.100000)"
fill="#000000" stroke="none">
<path d="M620 1240 c0 -6 -11 -29 -26 -51 -14 -22 -33 -55 -43 -72 -10 -18
-118 -202 -239 -410 -122 -208 -222 -380 -222 -383 0 -2 243 -4 540 -4 297 0
540 2 540 4 0 3 -22 42 -49 88 -57 98 -279 477 -302 516 -9 15 -25 43 -36 62
-58 102 -154 260 -158 260 -3 0 -5 -5 -5 -10z"/>
</g>
</svg>
