<?xml version="1.0" encoding="iso-8859-1"?>
<!-- Uploaded to: SVG Repo, www.svgrepo.com, Generator: SVG Repo Mixer Tools -->
<svg height="800px" width="800px" version="1.1" id="Layer_1" xmlns="http://www.w3.org/2000/svg" xmlns:xlink="http://www.w3.org/1999/xlink" 
	 viewBox="0 0 512 512" xml:space="preserve">
<path style="fill:#8AE9FF;" d="M227.486,257.071H54.439c-15.063,0-27.318,12.255-27.318,27.318s12.255,27.318,27.318,27.318h107.094
	L18.001,455.24C12.842,460.4,10,467.26,10,474.557s2.842,14.158,8.001,19.317c5.326,5.326,12.321,7.988,19.317,7.988
	s13.991-2.663,19.317-7.988l143.532-143.533v107.095c0,15.063,12.255,27.318,27.318,27.318c7.297,0,14.157-2.842,19.317-8.001
	c5.16-5.16,8.001-12.02,8.001-19.317V284.389c0-7.297-2.841-14.157-8.001-19.317C241.644,259.913,234.783,257.071,227.486,257.071z"
	/>
<path style="fill:#248A9C;" d="M37.319,511.863c-9.977,0-19.349-3.877-26.389-10.917C3.882,493.897,0,484.526,0,474.557
	c0-9.968,3.882-19.339,10.93-26.388l126.461-126.461H54.439c-20.577,0-37.318-16.741-37.318-37.318s16.741-37.318,37.318-37.318
	h173.047c9.968,0,19.339,3.882,26.388,10.93c7.048,7.048,10.93,16.42,10.93,26.388v173.047c0,9.967-3.881,19.339-10.93,26.388
	c-7.05,7.048-16.421,10.93-26.389,10.93c-20.578,0-37.318-16.741-37.318-37.318v-82.953L63.707,500.946
	C56.667,507.986,47.295,511.863,37.319,511.863z M54.439,267.071c-9.549,0-17.318,7.769-17.318,17.318s7.769,17.318,17.318,17.318
	h107.094c4.044,0,7.691,2.437,9.239,6.173s0.692,8.038-2.167,10.898L25.073,462.312c-3.271,3.271-5.073,7.62-5.073,12.246
	s1.801,8.975,5.073,12.246c3.262,3.263,7.611,5.06,12.246,5.06c4.634,0,8.983-1.797,12.246-5.06l143.532-143.533
	c2.861-2.859,7.162-3.715,10.898-2.167c3.737,1.548,6.173,5.194,6.173,9.239v107.095c0,9.549,7.769,17.318,17.318,17.318
	c4.626,0,8.975-1.802,12.247-5.073c3.271-3.271,5.072-7.62,5.072-12.245V284.389c0-4.626-1.801-8.975-5.072-12.246
	c-3.271-3.271-7.62-5.073-12.246-5.073H54.439V267.071z"/>
<path style="fill:#8AE9FF;" d="M502,37.438c0-7.297-2.842-14.158-8.001-19.317c-10.651-10.651-27.982-10.652-38.634,0
	L311.832,161.653V54.559c0-15.063-12.255-27.318-27.318-27.318c-7.297,0-14.157,2.842-19.317,8.001
	c-5.16,5.16-8.001,12.02-8.001,19.317v173.047c0,7.297,2.841,14.157,8.001,19.317s12.021,8.001,19.317,8.001h173.047
	c15.063,0,27.318-12.255,27.318-27.318s-12.255-27.318-27.318-27.318H350.466L493.999,56.755C499.158,51.595,502,44.735,502,37.438z
	"/>
<g>
	<path style="fill:#248A9C;" d="M457.561,264.924H284.514c-9.968,0-19.339-3.882-26.388-10.93
		c-7.048-7.048-10.93-16.42-10.93-26.388V54.559c0-9.967,3.881-19.339,10.93-26.388c7.05-7.048,16.421-10.93,26.389-10.93
		c20.578,0,37.318,16.741,37.318,37.318v82.953l126.46-126.463c14.55-14.55,38.226-14.55,52.777,0
		C508.118,18.098,512,27.47,512,37.438s-3.882,19.339-10.93,26.388L374.608,190.288h82.952c20.577,0,37.318,16.741,37.318,37.318
		S478.138,264.924,457.561,264.924z M284.514,37.24c-4.626,0-8.975,1.802-12.247,5.073c-3.271,3.271-5.072,7.62-5.072,12.245
		v173.048c0,4.626,1.801,8.975,5.072,12.246s7.62,5.073,12.246,5.073H457.56c9.549,0,17.318-7.769,17.318-17.318
		s-7.769-17.318-17.318-17.318H350.466c-4.044,0-7.691-2.437-9.239-6.173c-1.548-3.736-0.692-8.038,2.167-10.897L486.927,49.684
		c3.271-3.271,5.073-7.62,5.073-12.246s-1.801-8.975-5.073-12.246c-6.751-6.752-17.739-6.753-24.492,0L318.903,168.725
		c-2.86,2.86-7.161,3.717-10.898,2.167c-3.737-1.548-6.173-5.194-6.173-9.239V54.559C301.832,45.009,294.063,37.24,284.514,37.24z"
		/>
	<path style="fill:#248A9C;" d="M227,399.998c-5.523,0-10-4.477-10-10v-2.76c0-5.523,4.477-10,10-10s10,4.477,10,10v2.76
		C237,395.521,232.523,399.998,227,399.998z"/>
	<path style="fill:#248A9C;" d="M227,370.131c-5.523,0-10-4.477-10-10v-72.684c0-5.523,4.477-10,10-10s10,4.477,10,10v72.684
		C237,365.654,232.523,370.131,227,370.131z"/>
</g>
</svg>